<?xml version="1.0" encoding="utf-8"?>
<!-- Generator: Adobe Illustrator 23.0.5, SVG Export Plug-In . SVG Version: 6.00 Build 0)  -->
<svg version="1.1" xmlns="http://www.w3.org/2000/svg" xmlns:xlink="http://www.w3.org/1999/xlink" x="0px" y="0px"
	 viewBox="0 0 512 512" style="enable-background:new 0 0 512 512;" xml:space="preserve">
<style type="text/css">
	.st0{fill:#D3D3D3;}
	.st1{fill:#696969;}
</style>
<g id="Layer_1">
	<path class="st0" d="M160,320h320c53,0,96-43,96-96s-43-96-96-96c-0.6,0-1.1,0.2-1.6,0.2c1.1-5.2,1.6-10.6,1.6-16.2
		c0-44.2-35.8-80-80-80c-24.6,0-46.3,11.3-61,28.8C320.4,24.8,283.3,0,240,0c-61.9,0-112,50.1-112,112c0,7.3,0.8,14.3,2.1,21.2
		C91.8,145.8,64,181.5,64,224C64,277,107,320,160,320z"/>
</g>
<g id="Layer_2">
	<path class="st1" d="M208,464H80c-8.8,0-16,7.2-16,16v16c0,8.8,7.2,16,16,16h128c8.8,0,16-7.2,16-16v-16
		C224,471.2,216.8,464,208,464z"/>
	<path class="st1" d="M624,464H288c-8.8,0-16,7.2-16,16v16c0,8.8,7.2,16,16,16h336c8.8,0,16-7.2,16-16v-16
		C640,471.2,632.8,464,624,464z"/>
	<path class="st1" d="M576,408v-16c0-8.8-7.2-16-16-16H16c-8.8,0-16,7.2-16,16v16c0,8.8,7.2,16,16,16h544
		C568.8,424,576,416.8,576,408z"/>
</g>
</svg>
