<?xml version="1.0" encoding="utf-8"?>
<!-- Generator: Adobe Illustrator 23.0.5, SVG Export Plug-In . SVG Version: 6.00 Build 0)  -->
<svg version="1.1" xmlns="http://www.w3.org/2000/svg" xmlns:xlink="http://www.w3.org/1999/xlink" x="0px" y="0px"
	 viewBox="0 0 512 512" style="enable-background:new 0 0 512 512;" xml:space="preserve">
<style type="text/css">
	.st0{fill:#87CEEB;}
	.st1{fill:#D3D3D3;}
</style>
<g id="cloud">
	<path class="st0" d="M183.9,370.1c-7.6-4.4-17.4-1.8-21.8,6l-64,112c-4.4,7.7-1.7,17.5,6,21.8c2.5,1.4,5.2,2.1,7.9,2.1
		c5.5,0,10.9-2.9,13.9-8.1l64-112C194.3,384.3,191.6,374.5,183.9,370.1z M279.9,370.1c-7.6-4.4-17.4-1.8-21.8,6l-64,112
		c-4.4,7.7-1.7,17.5,6,21.8c2.5,1.4,5.2,2.1,7.9,2.1c5.5,0,10.9-2.9,13.9-8.1l64-112C290.3,384.3,287.6,374.5,279.9,370.1z
		 M87.9,370.1c-7.6-4.4-17.4-1.8-21.8,6l-64,112c-4.4,7.7-1.7,17.5,6,21.8c2.5,1.4,5.2,2.1,7.9,2.1c5.5,0,10.9-2.9,13.9-8.1l64-112
		C98.3,384.3,95.6,374.5,87.9,370.1z M471.9,370.1c-7.6-4.4-17.4-1.8-21.8,6l-64,112c-4.4,7.7-1.7,17.5,6,21.8
		c2.5,1.4,5.2,2.1,7.9,2.1c5.5,0,10.9-2.9,13.9-8.1l64-112C482.3,384.3,479.6,374.5,471.9,370.1z M375.9,370.1
		c-7.6-4.4-17.4-1.8-21.8,6l-64,112c-4.4,7.7-1.7,17.5,6,21.8c2.5,1.4,5.2,2.1,7.9,2.1c5.5,0,10.9-2.9,13.9-8.1l64-112
		C386.3,384.3,383.6,374.5,375.9,370.1z"/>
</g>
<g id="drop">
	<path class="st1" d="M416.5,128c-0.6,0-1.1,0.2-1.6,0.2c1.1-5.2,1.6-10.6,1.6-16.2c0-44.2-35.8-80-80-80c-24.6,0-46.3,11.3-61,28.8
		c-18.6-36-55.7-60.8-99-60.8c-61.8,0-112,50.1-112,112c0,7.3,0.8,14.3,2.1,21.2C28.3,145.8,0.5,181.5,0.5,224c0,53,43,96,96,96h320
		c53,0,96-43,96-96S469.5,128,416.5,128z"/>
</g>
</svg>
