<?xml version="1.0" encoding="utf-8"?>
<!-- Generator: Adobe Illustrator 23.0.5, SVG Export Plug-In . SVG Version: 6.00 Build 0)  -->
<svg version="1.1" id="thunderstorm" xmlns="http://www.w3.org/2000/svg" xmlns:xlink="http://www.w3.org/1999/xlink" x="0px"
	 y="0px" viewBox="0 0 512 512" style="enable-background:new 0 0 512 512;" xml:space="preserve">
<style type="text/css">
	.st0{fill:#FFD700;}
	.st1{fill:#808080;}
</style>
<path id="_x3C_lightning_x3E_" class="st0" d="M336.2,288h-72.1l22.6-77.1c2.5-9.5-4.6-18.9-14.5-18.9h-82c-7.5,0-13.9,5.6-14.9,13
	l-16,130c-1.2,9,5.8,17,14.9,17h81l-31.6,141.5c-2.2,9.5,5,18.5,14.6,18.5c5.2,0,10.2-2.7,13-7.5l98-194
	C354.9,300.5,347.7,288,336.2,288z"/>
<path id="_x3C_cloud_x3E_" class="st1" d="M415.8,128.3c-0.6,0-1.1,0.2-1.6,0.2c1.1-5.2,1.6-10.6,1.6-16.2c0-44.2-35.8-80-80-80
	c-24.6,0-46.3,11.3-61,28.8c-18.6-36-55.7-60.8-99-60.8c-61.9,0-112,50.1-112,112c0,7.3,0.8,14.3,2.1,21.2
	c-38.3,12.6-66.1,48.3-66.1,90.8c0,53,43,96,96,96h32.5l15.9-119.2c3.1-23.3,23.1-40.8,46.6-40.8h85c14.7,0,28.3,6.7,37.3,18.4
	s11.9,26.5,8.1,40.7l-10.9,40.9h30.5c16.7,0,32.3,9,40.7,23.5c6.4,11.2,7.8,24.4,4.3,36.5h30c53,0,96-43,96-96
	S468.8,128.3,415.8,128.3z"/>
</svg>
